<svg width="44" height="41" viewBox="0 0 44 41" fill="none" xmlns="http://www.w3.org/2000/svg">
<path d="M34.532 0H8.93948C4.01023 0 0 4.01023 0 8.93948C0 13.8926 4.05192 17.879 8.88616 17.879H12.9013V10.8748C12.9013 7.73807 15.4531 5.18617 18.5898 5.18617H18.6022C21.7322 5.19287 24.2786 7.74478 24.2786 10.8748V17.879H34.532C39.4612 17.879 43.4713 13.8687 43.4713 8.93948C43.4713 4.01023 39.4612 0 34.532 0ZM37.0616 7.6929L31.9673 12.7872C31.47 13.2846 30.6636 13.2847 30.1662 12.7872L27.6191 10.24C27.1217 9.74268 27.1217 8.93633 27.6191 8.43896C28.1164 7.94159 28.9228 7.94159 29.4202 8.43896L31.0668 10.0855L35.2606 5.89181C35.7579 5.39444 36.5643 5.39444 37.0617 5.89181C37.559 6.38918 37.559 7.19561 37.0616 7.6929Z" fill="#007F5F"/>
<path d="M29.9302 21.4631L21.7315 20.6109V10.8747C21.7315 9.14227 20.3291 7.73693 18.5967 7.73319C16.8592 7.72946 15.4486 9.13701 15.4486 10.8747V27.1696H15.42L12.319 24.58C11.0111 23.4877 9.05928 23.6925 8.00646 25.0324C6.99686 26.3174 7.1918 28.1721 8.44644 29.2191L14.7407 34.4714H33.2785V25.2544C33.2785 23.3269 31.8429 21.7013 29.9302 21.4631Z" fill="#007F5F"/>
<path d="M15.4484 39.5656C15.4484 40.269 16.0186 40.8392 16.7219 40.8392H32.0048C32.7082 40.8392 33.2784 40.269 33.2784 39.5656V37.0185H15.4484V39.5656Z" fill="#007F5F"/>
</svg>
