<svg width="27" height="35" viewBox="0 0 27 35" fill="none" xmlns="http://www.w3.org/2000/svg">
<path d="M13.2254 34.4507L23.7155 21.0021L23.7273 20.9873C25.4405 18.7046 26.3462 15.9842 26.3462 13.1209C26.3462 5.88625 20.46 0 13.2254 0C5.99075 0 0.104492 5.88625 0.104492 13.1209C0.104492 15.9842 1.01023 18.7046 2.73524 21.0021L13.2254 34.4507ZM13.2254 4.03719C18.2343 4.03719 22.309 8.11197 22.309 13.1209C22.309 18.1298 18.2343 22.2045 13.2254 22.2045C8.21646 22.2045 4.14168 18.1298 4.14168 13.1209C4.14168 8.11197 8.21646 4.03719 13.2254 4.03719Z" fill="#007F5F"/>
</svg>
