<svg width="48" height="35" viewBox="0 0 48 35" fill="none" xmlns="http://www.w3.org/2000/svg">
<path d="M39.6941 22.2836C38.4935 23.4151 37.0183 24.2505 35.378 24.6867C36.9153 27.1219 37.9654 29.9065 38.3533 32.9191C38.4277 33.5008 38.3203 34.0652 38.0728 34.5768H46.5122C46.7823 34.5768 47.0463 34.4531 47.2341 34.2383C47.4142 34.0339 47.5 33.7727 47.468 33.5233C46.8452 28.6738 43.7965 24.5335 39.6941 22.2836Z" fill="#007F5F"/>
<path d="M29.9612 18.9587C30.2989 19.1985 30.6235 19.4548 30.9446 19.7144C31.2675 19.9758 31.587 20.2408 31.8924 20.5213C32.7624 21.3161 33.5633 22.1851 34.2861 23.1208C35.6522 22.8716 36.9021 22.2889 37.9478 21.4579C38.2109 21.2485 38.4627 21.0277 38.6983 20.7896C38.919 20.5663 39.1233 20.3274 39.3173 20.0815C40.4306 18.6669 41.1005 16.8899 41.1005 14.9551C41.1005 10.3749 37.3737 6.64819 32.7936 6.64819C31.831 6.64819 30.91 6.8209 30.0495 7.12422C30.3499 8.18251 30.5212 9.29486 30.5212 10.4484C30.5212 13.1951 29.5992 15.725 28.0628 17.7675C28.7173 18.1328 29.3526 18.5251 29.9612 18.9587Z" fill="#007F5F"/>
<path d="M17.5274 34.5769H19.0788H35.2107C35.6324 34.5769 36.028 34.4012 36.2971 34.0964C36.5336 33.829 36.6391 33.4905 36.5932 33.1451C36.207 30.13 35.0947 27.3669 33.4638 25.0019C33.263 24.7118 33.0595 24.4245 32.844 24.1466C32.5964 23.8297 32.3333 23.5267 32.0674 23.2254C31.3039 22.3649 30.4661 21.5765 29.5596 20.8717C29.2498 20.6302 28.9303 20.4017 28.6048 20.181C28.2871 19.9653 27.9693 19.7524 27.6386 19.5568C27.3911 19.4096 27.1358 19.2746 26.8804 19.1387C26.6302 19.3872 26.3696 19.6244 26.0978 19.8512C25.8701 20.0399 25.6303 20.213 25.3889 20.3861C25.1498 20.5574 24.9023 20.7177 24.6503 20.8708C24.5301 20.9445 24.4125 21.0215 24.2885 21.0906C24.2513 21.1116 24.2167 21.1365 24.1795 21.1565C22.4343 22.1191 20.432 22.6696 18.302 22.6696C14.9601 22.6696 11.9304 21.3183 9.72196 19.1377C4.56487 21.8776 0.798364 26.9978 0.010089 33.1389C-0.0348894 33.4868 0.0715018 33.8263 0.309657 34.0972C0.577509 34.4009 0.972799 34.5766 1.39217 34.5766H16.5451H17.5274V34.5769Z" fill="#007F5F"/>
<path d="M10.7702 17.6689C10.9892 17.8965 11.2185 18.1138 11.4571 18.3215C13.2927 19.9195 15.6828 20.8951 18.3023 20.8951C20.2951 20.8951 22.1527 20.3237 23.7395 19.3517C23.9937 19.195 24.2404 19.0298 24.4792 18.8539C24.7096 18.6842 24.9328 18.5085 25.1467 18.3216C25.1614 18.3087 25.1752 18.2947 25.1899 18.2826C25.4125 18.0871 25.628 17.8834 25.8332 17.6689C26.0504 17.442 26.259 17.2083 26.4555 16.9625C27.8873 15.1744 28.7496 12.9115 28.7496 10.4471C28.7496 9.56887 28.6292 8.72048 28.4232 7.90423C28.3478 7.60553 28.2622 7.31216 28.1617 7.02384C28.0631 6.74128 27.9548 6.46291 27.8337 6.19073C26.2002 2.54762 22.5467 0 18.3023 0C12.5422 0 7.85553 4.68669 7.85553 10.4472C7.85553 12.911 8.71733 15.1737 10.1487 16.9618C10.3446 17.2083 10.5529 17.442 10.7702 17.6689Z" fill="#007F5F"/>
</svg>
