<svg width="40" height="41" viewBox="0 0 40 41" fill="none" xmlns="http://www.w3.org/2000/svg">
<path d="M37.4446 21.0314C37.2796 20.6938 37.2796 20.3067 37.4446 19.9693L38.9737 16.841C39.8251 15.0992 39.1506 13.0232 37.438 12.1146L34.3622 10.4826C34.0303 10.3066 33.8028 9.99329 33.7379 9.62341L33.1363 6.19373C32.8014 4.28418 31.035 3.00101 29.1158 3.27255L25.6682 3.76023C25.296 3.81276 24.9281 3.69312 24.6581 3.43199L22.1556 1.01106C20.7622 -0.33698 18.5792 -0.33706 17.1859 1.01106L14.6833 3.43223C14.4132 3.69345 14.0453 3.81284 13.6732 3.76047L10.2256 3.27279C8.30573 3.00109 6.54 4.28442 6.20503 6.19397L5.60348 9.62349C5.53854 9.99345 5.31104 10.3066 4.97927 10.4827L1.90346 12.1147C0.190908 13.0233 -0.483673 15.0995 0.36772 16.8413L1.89682 19.9695C2.06178 20.307 2.06178 20.6941 1.89682 21.0315L0.36764 24.1597C-0.483753 25.9015 0.190827 27.9775 1.90338 28.8862L4.97919 30.5182C5.31104 30.6942 5.53854 31.0075 5.60348 31.3773L6.20503 34.807C6.50997 36.5454 8.00055 37.7645 9.71367 37.7643C9.88239 37.7643 10.0536 37.7525 10.2257 37.7281L13.6733 37.2404C14.0451 37.1877 14.4133 37.3075 14.6833 37.5687L17.1859 39.9896C17.8827 40.6637 18.7765 41.0007 19.6707 41.0006C20.5646 41.0005 21.459 40.6635 22.1555 39.9896L24.6581 37.5687C24.9282 37.3075 25.2962 37.1882 25.6682 37.2404L29.1158 37.7281C31.0359 37.9997 32.8014 36.7165 33.1363 34.8069L33.738 31.3774C33.8029 31.0075 34.0304 30.6943 34.3622 30.5182L37.438 28.8862C39.1506 27.9776 39.8251 25.9014 38.9737 24.1596L37.4446 21.0314ZM14.9412 9.85908C17.3317 9.85908 19.2765 11.8039 19.2765 14.1944C19.2765 16.5849 17.3317 18.5298 14.9412 18.5298C12.5507 18.5298 10.6058 16.5849 10.6058 14.1944C10.6058 11.8039 12.5507 9.85908 14.9412 9.85908ZM12.7035 29.1395C12.4726 29.3704 12.17 29.4859 11.8675 29.4859C11.5649 29.4859 11.2622 29.3705 11.0314 29.1395C10.5697 28.6778 10.5697 27.9292 11.0314 27.4674L26.6378 11.861C27.0995 11.3993 27.8482 11.3993 28.3099 11.861C28.7717 12.3228 28.7717 13.0714 28.3099 13.5332L12.7035 29.1395ZM24.4 31.1417C22.0095 31.1417 20.0647 29.1968 20.0647 26.8063C20.0647 24.4158 22.0095 22.4709 24.4 22.4709C26.7905 22.4709 28.7354 24.4158 28.7354 26.8063C28.7354 29.1968 26.7905 31.1417 24.4 31.1417Z" fill="#007F5F"/>
<path d="M24.4 24.8358C23.3134 24.8358 22.4293 25.7198 22.4293 26.8064C22.4293 27.893 23.3133 28.7769 24.4 28.7769C25.4866 28.7769 26.3705 27.893 26.3705 26.8064C26.3705 25.7198 25.4866 24.8358 24.4 24.8358Z" fill="#007F5F"/>
<path d="M14.9411 12.2239C13.8545 12.2239 12.9705 13.1079 12.9705 14.1945C12.9705 15.2811 13.8545 16.1651 14.9411 16.1651C16.0277 16.1651 16.9117 15.2812 16.9117 14.1945C16.9117 13.108 16.0277 12.2239 14.9411 12.2239Z" fill="#007F5F"/>
</svg>
