<svg width="41" height="41" viewBox="0 0 41 41" fill="none" xmlns="http://www.w3.org/2000/svg">
<path d="M20.1689 0C9.03001 0 0 9.17832 0 20.4998C0 31.8209 9.03001 41.0003 20.1688 41.0003C31.3075 41.0003 40.3385 31.8213 40.3385 20.4998C40.3381 9.17832 31.3078 0 20.1689 0ZM31.687 23.0721C30.7786 28.9392 25.7789 33.1392 20.1097 33.1392C19.5064 33.1392 18.8958 33.0914 18.2813 32.9935C11.8948 31.9706 7.51598 25.8575 8.5204 19.367C9.00729 16.2222 10.6698 13.4581 13.2015 11.5845C15.3812 9.97166 17.98 9.18693 20.6354 9.31485L18.682 7.42422L19.9622 6.05879L22.9594 8.96143L22.9601 8.96102L24.3006 10.2611L23.0215 11.6265L23.0208 11.6255L20.1653 14.6724L18.8234 13.3712L20.6327 11.4426C18.4198 11.3149 16.2486 11.9604 14.4331 13.3038C12.3528 14.8432 10.9871 17.1139 10.5871 19.6976C9.76229 25.0301 13.3599 30.0525 18.6067 30.8926C23.8533 31.7304 28.7942 28.0749 29.6197 22.7417C30.1648 19.2212 28.7826 15.6733 26.0115 13.4825L27.297 11.8041C30.668 14.4697 32.3504 18.7874 31.687 23.0721ZM16.2824 23.977L16.2137 23.8136L17.9379 23.0706L18.006 23.2344C18.2801 23.8958 19.228 24.3945 20.2103 24.3945C20.6519 24.3945 22.0921 24.3127 22.0921 23.2549C22.0921 22.7008 21.4763 22.3691 20.1539 22.2106C18.6699 22.0415 16.6361 21.8104 16.6361 19.5337C16.6361 18.1378 17.6635 17.162 19.3936 16.9022V15.8293H21.252V16.9069C22.0551 17.0504 23.115 17.406 23.706 18.6349L23.7846 18.7975L22.1974 19.5437L22.1171 19.408C21.8392 18.9416 21.0217 18.5754 20.257 18.5754C19.7412 18.5754 18.5419 18.6691 18.5419 19.5336C18.5419 20.155 19.3147 20.2981 20.3254 20.4211C21.9056 20.6189 24.0688 20.8897 24.0688 23.2546C24.0688 24.995 22.6801 25.9112 21.2524 26.0736V27.2972H19.3944V26.1324C17.8952 25.9532 16.793 25.1914 16.2824 23.977Z" fill="#007F5F"/>
</svg>
