<svg width="24" height="24" viewBox="0 0 24 24" fill="none" xmlns="http://www.w3.org/2000/svg">
<path d="M23 23L15.6667 15.6667M18.1111 9.55556C18.1111 10.6791 17.8898 11.7916 17.4599 12.8296C17.0299 13.8676 16.3997 14.8108 15.6052 15.6052C14.8108 16.3997 13.8676 17.0299 12.8296 17.4599C11.7916 17.8898 10.6791 18.1111 9.55556 18.1111C8.43202 18.1111 7.31949 17.8898 6.28149 17.4599C5.24348 17.0299 4.30032 16.3997 3.50586 15.6052C2.71141 14.8108 2.08121 13.8676 1.65125 12.8296C1.2213 11.7916 1 10.6791 1 9.55556C1 7.28648 1.90139 5.11034 3.50586 3.50586C5.11034 1.90139 7.28648 1 9.55556 1C11.8246 1 14.0008 1.90139 15.6052 3.50586C17.2097 5.11034 18.1111 7.28648 18.1111 9.55556Z" stroke="white" stroke-linecap="round" stroke-linejoin="round"/>
</svg>
