<svg width="43" height="41" viewBox="0 0 43 41" fill="none" xmlns="http://www.w3.org/2000/svg">
<path d="M42.1628 5.73818C42.0788 5.20955 41.645 4.77472 41.0586 4.6318L22.2639 0.0490397C21.9959 -0.0163466 21.7129 -0.0163466 21.4448 0.0490397L2.65006 4.6318C2.06364 4.77472 1.62984 5.20937 1.54589 5.73818C1.43688 6.42545 -1.04999 22.6641 5.32868 30.7424C11.6998 38.811 21.0986 40.8787 21.4955 40.9628C21.6135 40.9878 21.7337 41.0001 21.8543 41.0001C21.975 41.0001 22.0952 40.9876 22.2131 40.9628C22.6103 40.8787 32.0091 38.811 38.38 30.7424C44.7586 22.6643 42.2718 6.42563 42.1628 5.73818ZM33.9745 15.2185L21.1546 26.4587C20.8563 26.7202 20.4651 26.8512 20.0741 26.8512C19.6831 26.8512 19.2919 26.7204 18.9936 26.4587L11.0671 19.509C10.7804 19.2578 10.6195 18.9169 10.6195 18.5616C10.6195 18.2062 10.7806 17.8654 11.0671 17.6142L12.641 16.2343C13.2378 15.7112 14.2054 15.711 14.802 16.2343L20.0741 20.8567L30.2396 11.9436C30.5261 11.6923 30.9149 11.5511 31.3201 11.5511C31.7254 11.5511 32.1142 11.6923 32.4007 11.9436L33.9745 13.3235C34.5713 13.8468 34.5713 14.6952 33.9745 15.2185Z" fill="#007F5F"/>
</svg>
