<svg width="37" height="35" viewBox="0 0 37 35" fill="none" xmlns="http://www.w3.org/2000/svg">
<path d="M29.8181 22.6174C28.1944 24.5211 25.5642 25.761 22.6007 25.761H18.4426C17.0062 25.761 15.783 24.9825 15.3198 23.8929C14.748 23.7474 14.1874 23.5584 13.6402 23.3263C12.4816 22.8349 11.4295 22.1691 10.5034 21.3443C4.49608 22.4709 0 27.0403 0 32.5069V33.2215C0 34.2037 0.932807 35 2.08343 35H34.4082C35.5588 35 36.4916 34.2037 36.4916 33.2215V32.5069C36.4915 28.284 33.8082 24.5963 29.8181 22.6174Z" fill="#007F5F"/>
<path d="M8.28893 17.6785C9.18436 17.6785 9.96375 17.2548 10.3675 16.6296C10.3782 16.6544 10.3889 16.679 10.3998 16.7036C10.403 16.7109 10.4063 16.7183 10.4095 16.7257C11.3567 18.8542 13.1999 20.6385 15.6303 21.4181C16.2181 20.6208 17.2575 20.0906 18.4426 20.0906H22.6007C23.0155 20.0906 23.4015 19.9907 23.7399 19.8292C24.3083 19.5579 24.8194 18.8696 25.0833 18.5048C25.5056 17.9211 25.8329 17.3027 26.123 16.6286C26.2861 16.8813 26.5103 17.1012 26.779 17.2736V18.1439C26.779 20.1107 24.9046 21.7108 22.6006 21.7108H18.4425C17.6564 21.7108 17.0191 22.2548 17.0191 22.9259C17.0191 23.597 17.6564 24.1409 18.4425 24.1409H22.6006C26.4743 24.1409 29.6257 21.4507 29.6257 18.1439V17.2736C30.202 16.904 30.5747 16.3159 30.5747 15.6534V11.9895V10.5846C30.5747 9.90842 30.1863 9.31018 29.5898 8.94233C29.1272 3.94537 24.2161 0 18.2456 0C12.2751 0 7.36406 3.94537 6.90149 8.94226C6.30504 9.3101 5.9166 9.90842 5.9166 10.5845V15.6533C5.9166 16.7749 6.984 17.6785 8.28893 17.6785ZM18.2456 2.43022C22.6655 2.43022 26.311 5.31356 26.7371 8.99251C26.4573 9.18035 26.2282 9.42043 26.0703 9.69591C24.7272 6.7046 21.729 4.62197 18.2456 4.62197C14.687 4.62197 11.7369 6.77617 10.4261 9.68396C10.4243 9.68792 10.4226 9.69195 10.4208 9.69599C10.2629 9.42051 10.0338 9.18043 9.75405 8.99259C10.1804 5.31356 13.8258 2.43022 18.2456 2.43022Z" fill="#007F5F"/>
</svg>
