<svg width="35" height="29" viewBox="0 0 35 29" fill="none" xmlns="http://www.w3.org/2000/svg">
<path d="M33.4414 2.01859H28.3061C28.3146 1.68297 28.3276 1.35084 28.3276 1.0093C28.3276 0.451425 27.8762 0 27.3183 0H7.13237C6.5745 0 6.12307 0.451425 6.12307 1.0093C6.12307 1.35084 6.13612 1.6831 6.14454 2.01859H1.0093C0.451425 2.01859 0 2.47002 0 3.02789V5.58464C0 11.2193 4.51291 15.7964 10.0751 16.0924C11.2351 17.6879 12.6164 18.8724 14.1798 19.5452C13.9504 24.1507 11.5069 27.3404 10.7165 28.2603H23.7326C22.9424 27.3468 20.4994 24.176 20.2701 19.5452C21.8339 18.8726 23.2158 17.6882 24.3759 16.0924C29.9378 15.7962 34.4507 11.2192 34.4507 5.58464V3.02789C34.4507 2.47002 33.9993 2.01859 33.4414 2.01859ZM2.01859 5.58464V4.03719H6.24506C6.54617 7.88254 7.42103 11.2538 8.75821 13.9087C4.9467 13.0504 2.01859 9.65178 2.01859 5.58464ZM21.2941 8.7101L20 9.98451L20.2976 11.7764C20.3608 12.1539 20.205 12.5344 19.8955 12.7581C19.585 12.9836 19.1769 13.0137 18.8369 12.838L17.2253 12.0011L15.6138 12.838C15.2728 13.0115 14.8647 12.9829 14.5553 12.7581C14.2458 12.5344 14.0901 12.154 14.1531 11.7764L14.4508 9.98451L13.1567 8.7101C12.879 8.43658 12.7897 8.03293 12.9053 7.67914C13.0236 7.3164 13.3371 7.05028 13.7155 6.99315L15.5114 6.72306L16.3226 5.09971C16.6636 4.41568 17.7873 4.41568 18.1283 5.09971L18.9395 6.72306L20.7353 6.99315C21.1138 7.05034 21.4272 7.31646 21.5455 7.67914C21.6637 8.04282 21.5661 8.44203 21.2941 8.7101ZM32.4321 5.58464C32.4321 9.65164 29.504 13.0503 25.6926 13.9085C27.0297 11.2537 27.9047 7.88268 28.2056 4.03719H32.4321V5.58464Z" fill="#007F5F"/>
</svg>
